<svg t="1743475832497" class="icon" viewBox="0 0 1024 1024" version="1.1" xmlns="http://www.w3.org/2000/svg" p-id="2649" width="200" height="200"><path d="M672.858482 516.804549c0.303445-12.836215 0.404594-19.202544 0.404594-26.829615 0-112.14589-66.03787-184.062409-159.579677-184.062409-98.964085 0-169.177939 72.59927-160.561058 184.858351 5.8353 76.127423-9.016658 138.862316-44.775029 187.419572H717.033845c-15.789989-21.502466-27.16196-41.782722-34.044868-60.915425-9.890869-27.517184-11.308151-48.662018-10.130495-100.470474z" fill="#a73121" p-id="2650"></path><path d="M511.928955 1.047609C233.531206 1.047609 7.090022 223.212864 0.573174 499.745389v24.512835c6.516847 276.527708 232.958031 498.692963 511.355781 498.692963 282.490648 0 511.499075-228.757964 511.499075-510.948779C1023.42803 229.807981 794.418399 1.047609 511.928955 1.047609z m240.005908 710.637412H590.421325a83.578689 83.578689 0 0 1 2.053072 18.434298c0 46.679991-38.42917 84.529966-85.820813 84.529966-47.403683 0-85.820812-37.85118-85.820812-84.529966a83.058498 83.058498 0 0 1 2.048255-18.434298H271.306524c-15.128912 0-22.525991-18.422256-11.582697-28.862217 46.209169-44.047724 66.314823-106.72 59.953311-189.490706-9.578995-124.920693 66.839832-211.18704 175.175798-220.133858v-47.445829c0-9.250263 7.50184-16.752103 16.764145-16.752103 9.258692 0 16.766553 7.50184 16.766553 16.752103v47.1761c104.958332 7.286298 178.418568 92.741049 178.418568 217.045219 0 7.958212-0.115598 14.513593-0.416635 27.589432-1.081325 47.650534 0.145702 66.099281 8.160509 88.386852 8.20145 22.799333 24.85963 48.901643 50.075688 78.048039 9.387536 10.838534 1.678582 27.686969-12.686901 27.686968z" fill="#a73121" p-id="2651"></path></svg>